<?xml version="1.0" encoding="utf-8"?>
<!-- Generator: Adobe Illustrator 23.0.2, SVG Export Plug-In . SVG Version: 6.00 Build 0)  -->
<svg version="1.1" id="Capa_1" xmlns="http://www.w3.org/2000/svg" xmlns:xlink="http://www.w3.org/1999/xlink" x="0px" y="0px"
	 viewBox="0 0 367.9 367.9" style="enable-background:new 0 0 367.9 367.9;" xml:space="preserve">
<style type="text/css">
	.st0{fill:#FFFFFF;}
</style>
<path class="st0" d="M367.9,6.9c-0.1-0.4-0.1-0.8-0.2-1.2c-0.1-0.5-0.3-0.9-0.5-1.3c-0.1-0.2-0.2-0.5-0.3-0.7
	c-0.1-0.1-0.2-0.2-0.3-0.4c-0.3-0.4-0.6-0.7-0.9-1s-0.7-0.6-1-0.9c-0.1-0.1-0.2-0.2-0.4-0.3c-0.2-0.1-0.5-0.2-0.7-0.3
	c-0.4-0.2-0.9-0.4-1.3-0.5c-0.4-0.1-0.8-0.2-1.2-0.2C360.5,0,360,0,359.5,0c-0.4,0-0.9,0.1-1.3,0.2c-0.3,0.1-0.6,0-0.8,0.1l-352,120
	c-3.2,1.1-5.4,4-5.4,7.4c-0.1,3.4,2,6.4,5.1,7.6l164.5,63.2l71.1,164.5c1.3,2.9,4.2,4.8,7.3,4.8c0.1,0,0.3,0,0.4,0
	c3.3-0.2,6.2-2.4,7.2-5.6l112-352c0.1-0.2,0.1-0.5,0.1-0.8c0.1-0.4,0.2-0.9,0.2-1.3C367.9,7.8,367.9,7.4,367.9,6.9z M31.5,128.4
	L330,26.6L173.6,183L31.5,128.4z M246.9,337.1l-61.8-143L342.4,36.8L246.9,337.1z"/>
<path class="st0" d="M125.7,242.3c-3.1-3.1-8.2-3.1-11.3,0l-112,112c-3.1,3.1-3.1,8.2,0,11.3c1.6,1.6,3.6,2.3,5.7,2.3
	s4.1-0.8,5.7-2.3l112-112C128.8,250.4,128.8,245.4,125.7,242.3z"/>
<path class="st0" d="M146.3,298.3l-56,56c-3.1,3.1-3.1,8.2,0,11.3c1.6,1.6,3.6,2.3,5.7,2.3s4.1-0.8,5.7-2.3l56-56
	c3.1-3.1,3.1-8.2,0-11.3C154.5,295.1,149.5,295.1,146.3,298.3z"/>
<path class="st0" d="M8,279.9c2,0,4.1-0.8,5.7-2.3l56-56c3.1-3.1,3.1-8.2,0-11.3c-3.1-3.1-8.2-3.1-11.3,0l-56,56
	c-3.1,3.1-3.1,8.2,0,11.3C3.9,279.1,6,279.9,8,279.9z"/>
</svg>
