<?xml version="1.0" encoding="utf-8"?>
<!-- Generator: Adobe Illustrator 23.0.2, SVG Export Plug-In . SVG Version: 6.00 Build 0)  -->
<svg version="1.1" id="Layer_1" xmlns="http://www.w3.org/2000/svg" xmlns:xlink="http://www.w3.org/1999/xlink" x="0px" y="0px"
	 viewBox="0 0 256 57" style="enable-background:new 0 0 256 57;" xml:space="preserve">
<style type="text/css">
	.st0{fill:#2C2E30;}
	.st1{fill:#00DCA4;}
	.st2{fill:#FFFFFF;}
	.st3{fill:#FF5C5B;}
</style>
<g>
	<path d="M138.9,37.2l2.8,5.2l0,0c0.1,0.1,0.1,0.2,0.1,0.4c0,0.4-0.3,0.8-0.8,0.8h-2.5c-0.3,0-0.6-0.2-0.7-0.4l0,0l-2.7-5.1h-3v4.8
		c0,0.4-0.3,0.8-0.8,0.8h-2.3c-0.4,0-0.8-0.4-0.8-0.8V28.3c0-0.4,0.3-0.8,0.8-0.8h6.8c4,0,6,2.1,6,5.1
		C141.9,35,140.4,36.5,138.9,37.2 M138,32.9c0-1.3-1-2-2.2-2h-3.6v4h3.6C137,34.9,138,34.2,138,32.9"/>
	<path d="M125.7,35.5c0,4.7-3.1,8.3-8.2,8.3c-5.1,0-8.2-3.7-8.2-8.3c0-4.6,3.1-8.3,8.2-8.3C122.6,27.2,125.7,30.9,125.7,35.5
		 M121.7,35.5c0-2.7-1.5-4.8-4.2-4.8c-2.7,0-4.2,2.1-4.2,4.8c0,2.7,1.5,4.8,4.2,4.8C120.2,40.3,121.7,38.2,121.7,35.5"/>
	<path d="M159.7,35.5c0,4.6-2.9,8-8.2,8h-5.9c-0.4,0-0.8-0.4-0.8-0.8V28.3c0-0.4,0.3-0.8,0.8-0.8h5.9
		C156.8,27.5,159.7,31,159.7,35.5 M155.8,35.5c0-2.8-1.5-4.6-4.3-4.6h-2.8v9.2h2.8C154.3,40.1,155.8,38.3,155.8,35.5"/>
	<path d="M107.4,27.5h-2.6c-0.4,0-0.7,0.3-0.8,0.6l0,0l-2.2,10.1c0,0-2.8-10.2-2.8-10.2c-0.1-0.3-0.4-0.5-0.7-0.5H96
		c-0.4,0-0.6,0.2-0.7,0.6l0,0l-2.8,10.1l-2.2-10.1c-0.1-0.4-0.4-0.6-0.8-0.6h-2.5c-0.4,0-0.8,0.4-0.8,0.8c0,0.1,0,0.1,0,0.2v0
		L90,42.9l0,0c0.1,0.3,0.4,0.6,0.7,0.6h3c0.4,0,0.7-0.2,0.7-0.6v0l2.6-9.5l2.5,9.5l0,0.1c0.1,0.3,0.4,0.5,0.7,0.5h3
		c0.3,0,0.6-0.2,0.7-0.5l0-0.1l4-14.5l0,0c0-0.1,0-0.1,0-0.2C108.2,27.8,107.8,27.5,107.4,27.5"/>
	<path d="M78.5,33.6c-1.7-0.3-3.3-0.6-3.3-1.7c0-1,1-1.5,2.3-1.5c1.3,0,2.6,0.4,3.6,1.4c0,0,0,0,0.1,0.1c0.2,0.2,0.6,0.3,0.9,0.1
		c0,0,0,0,0,0c0,0,0,0,0,0l1.5-0.9c0,0,0,0,0,0c0,0,0,0,0,0c0.2-0.2,0.3-0.4,0.3-0.6c0-0.1,0-0.3-0.1-0.4c0,0,0-0.1-0.1-0.1
		c0,0,0,0,0,0c-1.6-1.8-3.9-2.5-6.2-2.5c-3.7,0-6.2,1.9-6.2,4.9c0,3.4,2.8,4.4,6,5c1.9,0.3,3.5,0.6,3.5,1.9c0,1-1.1,1.7-2.8,1.7
		c-1.6,0-3.2-0.5-4.2-1.9c0,0,0,0,0,0c-0.2-0.3-0.6-0.4-1-0.2c0,0,0,0,0,0c0,0,0,0,0,0l-1.6,0.9c0,0,0,0,0,0c0,0,0,0,0,0
		c-0.4,0.2-0.5,0.7-0.3,1c0,0,0,0,0,0.1c0,0,0,0,0,0c1.4,2.1,3.9,3.3,7,3.3c4.3,0,6.7-2.3,6.7-5.3C84.7,35.2,81.9,34.2,78.5,33.6"/>
	<path d="M182.8,27.5c-0.1,0-0.2,0-0.3,0.1c-0.3,0.1-0.6,0.4-0.6,0.8v5.9h-9.5v-5.9c0-0.5-0.4-0.8-0.8-0.8c-0.5,0-0.8,0.4-0.8,0.8
		v14.4c0,0.5,0.4,0.8,0.8,0.8c0.5,0,0.8-0.4,0.8-0.8v-6.9h9.5v6.9c0,0.5,0.4,0.8,0.8,0.8c0.5,0,0.8-0.4,0.8-0.8V28.3
		C183.7,27.9,183.3,27.5,182.8,27.5"/>
	<path d="M197.9,42h-8.8v-6.1h7.4c0.4,0,0.8-0.4,0.8-0.8c0-0.4-0.4-0.8-0.8-0.8h-7.4v-5.2h8.6c0.4,0,0.8-0.4,0.8-0.8
		c0-0.4-0.4-0.8-0.8-0.8h-9.5c-0.4,0-0.8,0.4-0.8,0.8v14.5c0,0.4,0.4,0.8,0.8,0.8h9.7c0.4,0,0.8-0.4,0.8-0.8
		C198.7,42.3,198.3,42,197.9,42"/>
	<path d="M239.3,27.5h-11.4c-0.4,0-0.8,0.4-0.8,0.8c0,0.4,0.4,0.8,0.8,0.8h4.8v13.6c0,0.5,0.4,0.9,0.9,0.9s0.9-0.4,0.9-0.9V29.1h4.8
		c0.4,0,0.8-0.4,0.8-0.8C240.1,27.9,239.8,27.5,239.3,27.5"/>
	<path d="M255,27.5c-0.5,0-0.8,0.4-0.8,0.8v5.9h-9.5v-5.9c0-0.5-0.4-0.8-0.8-0.8c-0.5,0-0.9,0.4-0.9,0.8v14.4c0,0.5,0.4,0.8,0.9,0.8
		c0.5,0,0.8-0.4,0.8-0.8v-6.9h9.5v6.9c0,0.5,0.4,0.8,0.8,0.8c0.5,0,0.8-0.4,0.8-0.8V28.3C255.8,27.9,255.5,27.5,255,27.5"/>
	<path d="M227.4,42H219V28.3c0-0.5-0.4-0.8-0.8-0.8c-0.5,0-0.8,0.4-0.8,0.8v14.4c0,0.5,0.4,0.8,0.8,0.8h9.2c0.4,0,0.8-0.4,0.8-0.8
		C228.2,42.3,227.8,42,227.4,42"/>
	<path d="M214.7,42.7c0,0.4-0.2,0.7-0.5,0.8l-0.1,0c-0.1,0-0.2,0-0.3,0c-0.4,0-0.7-0.2-0.8-0.5c0,0,0,0,0-0.1l-1.7-4.2h-6.8
		l-1.7,4.3c-0.1,0.3-0.4,0.5-0.7,0.5c0,0-0.1,0-0.1,0c-0.1,0-0.2,0-0.3-0.1c-0.4-0.2-0.6-0.6-0.5-1.1v0l6-14.4c0,0,0,0,0-0.1
		c0,0,0,0,0,0c0,0,0-0.1,0.1-0.1c0,0,0,0,0,0c0,0,0-0.1,0.1-0.1c0,0,0,0,0,0c0,0,0.1-0.1,0.1-0.1c0,0,0,0,0,0c0,0,0,0,0,0
		c0,0,0,0,0,0c0,0,0,0,0,0c0,0,0,0,0.1,0v0c0,0,0,0,0,0c0,0,0,0,0,0c0,0,0,0,0,0h0c0,0,0,0,0.1,0c0,0,0,0,0,0c0,0,0,0,0.1,0
		c0,0,0,0,0.1,0h0c0,0,0,0,0.1,0c0.3,0,0.6,0.2,0.8,0.5l0,0.1l5.9,14.3v0C214.7,42.4,214.7,42.6,214.7,42.7 M210.6,37.1l-2.7-6.9
		l-2.8,6.9H210.6z"/>
	<path d="M0.6,29.9c0.5,0.5,1.4,0.5,1.9,0c0.2-0.2,0.4-0.6,0.4-0.9l0,0c0-0.3,0.1-0.6,0.3-0.8l11-11c0.2-0.2,0.5-0.3,0.8-0.3l0,0
		c0.3,0,0.6-0.2,0.9-0.4c0.2-0.2,0.4-0.6,0.4-0.9l0,0c0-0.3,0.1-0.6,0.3-0.8L29.4,2c0.3-0.3,0.3-0.7,0-1c-0.3-0.3-0.7-0.3-1,0
		L15.7,13.8c-0.2,0.2-0.5,0.3-0.8,0.3v0c-0.3,0-0.6,0.1-0.9,0.4c-0.2,0.2-0.4,0.6-0.4,0.9h0c0,0.3-0.1,0.6-0.3,0.8h0l-11,11v0
		c-0.2,0.2-0.5,0.3-0.8,0.3l0,0c-0.3,0-0.6,0.1-0.9,0.4C0,28.5,0,29.3,0.6,29.9"/>
	<path d="M55.3,27.9L42.6,40.6l0,0C42.3,40.9,42,41,41.8,41v0c-0.3,0-0.6,0.1-0.9,0.4c-0.2,0.2-0.4,0.6-0.4,0.9l0,0
		c0,0.3-0.1,0.6-0.3,0.8l0,0l-11,11l0,0c-0.2,0.2-0.5,0.3-0.8,0.3h0c-0.3,0-0.6,0.2-0.9,0.4c-0.3,0.3-0.4,0.6-0.4,1
		c0,0.3,0.1,0.7,0.4,1c0,0,0,0,0,0c0,0,0,0,0,0c0.3,0.3,0.6,0.4,1,0.4c0.3,0,0.7-0.1,1-0.4c0.3-0.3,0.4-0.6,0.4-1c0,0,0,0,0,0
		c0-0.3,0.1-0.5,0.3-0.7L41.1,44c0.2-0.2,0.5-0.3,0.8-0.3h0c0.3,0,0.6-0.2,0.9-0.4c0.2-0.2,0.4-0.6,0.4-0.9c0-0.3,0.1-0.6,0.3-0.8
		l12.7-12.7c0.3-0.3,0.3-0.7,0-1C56,27.7,55.5,27.7,55.3,27.9"/>
	<path d="M1.5,37c0.3,0,0.7-0.1,1-0.4l6.7-6.7c0.2-0.2,0.4-0.6,0.4-0.9h0c0-0.3,0.1-0.6,0.3-0.8l4.3-4.3v0c0.2-0.2,0.5-0.3,0.8-0.3
		l0,0c0.3,0,0.6-0.1,0.9-0.4c0,0,0,0,0,0l6.7-6.7h0c0,0,0,0,0,0h0c0.2-0.2,0.4-0.6,0.4-0.9l0,0c0-0.3,0.1-0.6,0.3-0.8v0L36.1,2
		c0.3-0.3,0.3-0.7,0-1c-0.3-0.3-0.7-0.3-1,0L22.4,13.8v0c-0.2,0.2-0.5,0.3-0.8,0.3l0,0c-0.3,0-0.6,0.2-0.9,0.4l0,0L14,21.2
		c0,0,0,0,0,0c-0.2,0.2-0.4,0.6-0.4,0.9l0,0c0,0.3-0.1,0.6-0.3,0.8L9,27.2c-0.2,0.2-0.5,0.3-0.8,0.3l0,0c-0.3,0-0.6,0.1-0.9,0.4
		l-6.7,6.7c-0.3,0.3-0.4,0.6-0.4,1s0.1,0.7,0.4,1C0.8,36.8,1.2,37,1.5,37"/>
	<path d="M15.9,43.3L15.9,43.3l13.4-13.4c0.2-0.2,0.4-0.6,0.4-0.9l0,0c0-0.3,0.1-0.6,0.3-0.8L56.2,2c0.3-0.3,0.3-0.7,0-1
		c-0.3-0.3-0.7-0.3-1,0L29.1,27.2c-0.2,0.2-0.5,0.3-0.8,0.3l0,0c-0.3,0-0.6,0.2-0.9,0.4L14,41.4c-0.5,0.5-0.5,1.4,0,1.9
		C14.5,43.8,15.4,43.8,15.9,43.3"/>
	<path d="M15.9,50l20.2-20.2c0.2-0.2,0.4-0.6,0.4-0.9l0,0c0-0.3,0.1-0.6,0.3-0.8h0L56.2,8.7c0.3-0.3,0.3-0.7,0-1
		c-0.3-0.3-0.7-0.3-1,0L35.9,27.2c-0.2,0.2-0.5,0.3-0.8,0.3h0c-0.3,0-0.6,0.2-0.9,0.4L14,48.1c-0.5,0.5-0.5,1.4,0,1.9
		C14.5,50.5,15.4,50.5,15.9,50"/>
	<path d="M29.4,16.4c0.2-0.2,0.4-0.6,0.4-0.9l0,0c0-0.3,0.1-0.6,0.3-0.8L42.8,2c0.3-0.3,0.3-0.7,0-1c-0.3-0.3-0.7-0.3-1,0L29.1,13.8
		c-0.2,0.2-0.5,0.3-0.8,0.3l0,0c-0.3,0-0.6,0.2-0.9,0.4L0.6,41.4c-0.3,0.3-0.4,0.6-0.4,1c0,0.3,0.1,0.7,0.4,1s0.6,0.4,1,0.4
		c0.3,0,0.7-0.1,1-0.4L29.4,16.4z"/>
	<path d="M29.8,22.3L29.8,22.3c0-0.3,0.1-0.6,0.3-0.8L49.5,2c0.3-0.3,0.3-0.7,0-1c-0.3-0.3-0.7-0.3-1,0L29.1,20.5
		c-0.2,0.2-0.5,0.3-0.8,0.3h0c-0.3,0-0.6,0.1-0.9,0.4L7.3,41.4c-0.5,0.5-0.5,1.4,0,1.9c0.5,0.5,1.4,0.5,1.9,0l20.2-20.2
		C29.6,22.9,29.7,22.6,29.8,22.3"/>
	<path d="M42.8,29.9c0.2-0.2,0.4-0.6,0.4-0.9l0,0c0-0.3,0.1-0.6,0.3-0.8l12.7-12.7c0.3-0.3,0.3-0.7,0-1c-0.3-0.3-0.7-0.3-1,0
		L42.6,27.2c-0.2,0.2-0.5,0.3-0.8,0.3h0c-0.3,0-0.6,0.2-0.9,0.4c0,0,0,0,0,0L14,54.8c-0.5,0.5-0.5,1.4,0,1.9c0.5,0.5,1.4,0.5,1.9,0
		c0,0,0,0,0,0L42.8,29.9z"/>
	<path d="M29.4,50c0.3-0.3,0.4-0.6,0.4-1v0c0-0.3,0.1-0.5,0.3-0.7l4.3-4.3l0,0c0.2-0.2,0.5-0.3,0.8-0.3l0,0c0.3,0,0.6-0.2,0.9-0.4
		l6.7-6.7c0.2-0.2,0.4-0.6,0.4-0.9l0,0c0-0.3,0.1-0.6,0.3-0.8l0,0l12.7-12.7c0.3-0.3,0.3-0.7,0-1c-0.3-0.3-0.7-0.3-1,0L42.6,33.9
		c-0.2,0.2-0.5,0.3-0.8,0.3l0,0c-0.3,0-0.6,0.1-0.9,0.4l-6.7,6.7c-0.2,0.2-0.4,0.6-0.4,0.9l0,0c0,0.3-0.1,0.6-0.3,0.8l-4.3,4.3h0
		c-0.2,0.2-0.5,0.3-0.8,0.3v0c-0.3,0-0.6,0.2-0.9,0.4v0l0,0l-6.7,6.7c-0.5,0.5-0.5,1.4,0,1.9c0.5,0.5,1.4,0.5,1.9,0l0,0L29.4,50z"/>
</g>
</svg>
